<svg xmlns="http://www.w3.org/2000/svg" xmlns:xlink="http://www.w3.org/1999/xlink" xmlns:lucid="lucid" width="200" height="260"><g transform="translate(-160 -60)" lucid:page-tab-id="0_0"><path d="M180 86a6 6 0 0 1 6-6h148a6 6 0 0 1 6 6v208a6 6 0 0 1-6 6H186a6 6 0 0 1-6-6z" fill="#fff" fill-opacity="0"/><use xlink:href="#a" transform="matrix(1,0,0,1,185,85) translate(13.888888888888886 182.5625)"/><defs><path fill="#d5d5d5" fill-opacity=".5" d="M182-182c0 78-84 86-111 141h115V0H12c-6-101 99-100 120-180 1-22-12-31-33-32-23 0-32 14-35 34l-49-3c5-45 32-70 84-70 51 0 83 22 83 69" id="b"/><use transform="matrix(0.6111111111111112,0,0,0.6111111111111112,0,0)" xlink:href="#b" id="a"/></defs></g></svg>